<?xml version="1.0" encoding="UTF-8"?>
<svg width="1456px" height="276px" viewBox="0 0 1456 276" version="1.1" xmlns="http://www.w3.org/2000/svg" xmlns:xlink="http://www.w3.org/1999/xlink">
    <title>breit</title>
    <g id="breit" stroke="none" stroke-width="1" fill="none" fill-rule="evenodd">
        <g id="Group" transform="translate(10.000000, 10.000000)" fill="#128589">
            <g id="Schrift" transform="translate(319.000000, 26.000000)">
                <path d="M207.110277,42.6268657 L207.110277,45.2366738 L177.9582,45.2366738 L177.9582,42.6268657 C177.9582,38.7121535 176.652883,35.6673774 174.042249,33.0575693 C171.431615,30.4477612 167.95077,29.1428571 164.469926,29.1428571 L42.6403511,29.1428571 C38.7244004,29.1428571 35.6786611,30.4477612 33.0680273,33.0575693 C30.4573936,35.6673774 29.1520767,39.1471215 29.1520767,42.6268657 L29.1520767,73.9445629 C29.1520767,77.8592751 30.4573936,80.9040512 33.0680273,83.5138593 C35.6786611,86.1236674 39.1595061,87.4285714 42.6403511,87.4285714 L164.905031,87.4285714 C176.652883,87.4285714 187.095418,91.7782516 195.362425,100.042644 C203.629432,108.307036 207.980488,118.311301 207.980488,130.055437 L207.980488,161.373134 C207.980488,173.117271 203.629432,183.121535 195.362425,191.385928 C187.095418,199.65032 177.087989,204 164.905031,204 L42.6403511,204 C30.8924992,204 20.8850699,199.65032 12.6180631,191.385928 C4.35105623,183.121535 0,173.117271 0,161.373134 L0,158.763326 L28.7169711,158.763326 L28.7169711,161.373134 C28.7169711,165.287846 30.022288,168.332623 32.6329217,170.942431 C35.2435555,173.552239 38.7244004,174.857143 42.2052454,174.857143 L164.469926,174.857143 C168.385876,174.857143 171.431615,173.552239 174.042249,170.942431 C176.652883,168.332623 177.9582,164.852878 177.9582,161.373134 L177.9582,130.055437 C177.9582,126.140725 176.652883,123.095949 174.042249,120.486141 C171.431615,117.876333 167.95077,116.571429 164.469926,116.571429 L42.6403511,116.571429 C30.8924992,116.571429 20.8850699,112.221748 12.6180631,103.957356 C4.35105623,95.6929638 0,85.6886994 0,73.9445629 L0,42.6268657 C0,30.8827292 4.35105623,20.8784648 12.6180631,12.6140725 C20.8850699,4.34968017 30.8924992,0 42.6403511,0 L164.905031,0 C176.652883,0 187.095418,4.34968017 195.362425,12.6140725 C203.194326,20.8784648 207.110277,30.8827292 207.110277,42.6268657 Z" id="Path"></path>
                <path d="M418.110105,0 L446.809756,0 L446.809756,161.282051 C446.809756,173.051282 442.461324,183.076923 434.199303,191.358974 C425.937282,199.641026 415.935889,204 403.760279,204 L282.439024,204 C270.698258,204 260.696864,199.641026 252.434843,191.358974 C244.172822,183.076923 239.82439,173.051282 239.82439,161.282051 L239.82439,0 L268.524042,0 L268.524042,161.282051 C268.524042,165.205128 269.828571,168.25641 272.437631,170.871795 C275.04669,173.487179 278.525436,174.794872 282.004181,174.794872 L404.195122,174.794872 C408.108711,174.794872 411.152613,173.487179 414.196516,170.871795 C416.805575,168.25641 418.544948,164.769231 418.544948,161.282051 L418.544948,0 L418.110105,0 Z" id="Path"></path>
                <path d="M521.383402,0 L643.468385,0 C655.240865,0 665.705292,4.35897436 673.98963,12.6410256 C682.273968,20.9230769 686.634146,30.9487179 686.634146,42.7179487 L686.634146,161.282051 C686.634146,173.051282 682.273968,183.076923 673.98963,191.358974 C665.705292,199.641026 655.676883,204 643.468385,204 L521.383402,204 C509.610922,204 499.582513,199.641026 491.298175,191.358974 C483.013836,183.076923 478.653659,173.051282 478.653659,161.282051 L478.653659,42.7179487 C478.653659,30.9487179 483.013836,20.9230769 491.298175,12.6410256 C499.582513,3.92307692 509.610922,0 521.383402,0 Z M643.904403,28.7692308 L521.81942,28.7692308 C517.89526,28.7692308 514.843135,30.0769231 512.227029,32.6923077 C509.610922,35.3076923 508.302869,38.7948718 508.302869,42.2820513 L508.302869,160.846154 C508.302869,164.769231 509.610922,167.820513 512.227029,170.435897 C514.843135,173.051282 518.331278,174.358974 521.81942,174.358974 L643.904403,174.358974 C647.828563,174.358974 650.880687,173.051282 653.496794,170.435897 C656.112901,167.820513 657.420954,164.333333 657.420954,160.846154 L657.420954,42.2820513 C657.420954,38.3589744 656.112901,35.3076923 653.496794,32.6923077 C650.880687,30.0769231 647.392545,28.7692308 643.904403,28.7692308 Z" id="Shape" fill-rule="nonzero"></path>
                <path d="M757.857236,0 L872.721951,0 L872.721951,28.6901969 L757.857236,28.6901969 C753.926504,28.6901969 750.869268,29.9942968 748.24878,32.6024965 C745.628293,35.2106962 744.318049,38.6882958 744.318049,42.1658954 L744.318049,203.004878 L715.492683,203.004878 L715.492683,42.1658954 C715.492683,30.4289967 719.860163,20.4308978 728.158374,12.1715987 C736.019837,3.91229958 746.065041,0 757.857236,0 Z" id="Path"></path>
                <path d="M1068.38546,0 C1080.15794,0 1090.62237,4.35897436 1098.9067,12.6410256 C1107.19104,20.9230769 1111.55122,30.9487179 1111.55122,42.7179487 L1111.55122,204 L946.300476,204 C934.527995,204 924.499586,199.641026 916.215248,191.358974 C907.93091,183.076923 903.570732,173.051282 903.570732,161.282051 L903.570732,87.6153846 L1081.90201,87.6153846 L1081.90201,42.7179487 C1081.90201,38.7948718 1080.59396,35.7435897 1077.97785,33.1282051 C1075.36174,30.5128205 1071.8736,29.2051282 1068.38546,29.2051282 L903.570732,29.2051282 L903.570732,0.435897436 L1068.38546,0.435897436 L1068.38546,0 Z M1081.90201,174.794872 L1081.90201,115.948718 L932.347906,115.948718 L932.347906,160.846154 C932.347906,164.769231 933.65596,167.820513 936.272066,170.435897 C938.888173,173.051282 942.376315,174.358974 945.864458,174.358974 L1081.90201,174.358974 L1081.90201,174.794872 Z" id="Shape" fill-rule="nonzero"></path>
            </g>
            <path d="M114.858934,93.7931034 L114.858934,115.260188 L46.645768,81.153605 L114.858934,47.0470219 L114.858934,68.3134796 L255.899687,68.3134796 L255.899687,22.7711599 C255.899687,10.2319749 245.667712,0 233.128527,0 L22.7711599,0 C10.2319749,0 0,10.2319749 0,22.7711599 L0,161.805643 L141.54232,161.805643 L141.54232,139.937304 L209.755486,174.043887 L141.54232,208.15047 L141.54232,187.38558 L0,187.38558 L0,233.22884 C0,245.768025 10.2319749,256 22.7711599,256 L233.22884,256 C245.768025,256 256,245.768025 256,233.22884 L256,93.7931034 L114.858934,93.7931034 Z" id="Path"></path>
        </g>
    </g>
</svg>