<svg id="logo" xmlns="http://www.w3.org/2000/svg" viewBox="0 0 238 70"><path fill="#95c11f" d="M34.4 69.4A34.4 34.4 0 1 0 0 35a34.4 34.4 0 0 0 34.4 34.4z"/><path fill="#1d1d1b" d="M238 39.5c0-4.9-1-9-7.3-9-5.8 0-8 3.6-8 9.3s2.2 9.4 8.2 9.4a16.6 16.6 0 0 0 6.3-1.1v-3.5a14.1 14.1 0 0 1-5.7 1.1c-3.6 0-4.6-1.7-4.7-4.4H238l.1-1.8zm-4-1h-7.2c.2-2.6 1-4.5 4-4.5s3.2 2.1 3.2 4.5zM219 49a4.4 4.4 0 0 0 .8 0v-3.3c-1.1 0-1.5-.4-1.5-1.4V22.6h-4v21.8c0 3 1.5 4.6 4.7 4.6zm-11.5-.3h2.3V36.9c0-3.8-1.3-6.3-7.2-6.3a16.5 16.5 0 0 0-5.8 1V35a15 15 0 0 1 5.5-1c2.7 0 3.5.6 3.5 2.5v.9l-4 .3c-4 .3-6.5 2-6.5 5.8 0 2.9 1.5 5.7 6.2 5.7a8.7 8.7 0 0 0 5.3-1.9l.7 1.5zm-1.7-4A6.5 6.5 0 0 1 202 46c-2.2 0-2.8-1.3-2.8-2.6 0-2 1-2.6 2.9-2.8l3.7-.4v4.6zM182.3 36c0-1.6 1.3-2.2 3.4-2.2a15 15 0 0 1 5.5 1v-3.4a13.6 13.6 0 0 0-5.6-1c-5.2 0-7.2 2.7-7.2 5.8s1.3 4.7 6.7 5.2c2.4.2 3 .9 3 2.2 0 1.5-1.4 2.2-4.2 2.2a15.9 15.9 0 0 1-5.4-1v3.4a16.9 16.9 0 0 0 6 1c5.6 0 7.5-2.7 7.5-5.7 0-3.4-1.4-5-6.7-5.4-2.3-.3-3-.8-3-2zm-6.8-5.1l2.3-8.4h-4.3l-1 8.4zm-10 17.8h4V36.1c0-3.4-1.5-5.6-6-5.6a10.4 10.4 0 0 0-5.9 1.8L157 31h-2.4v17.9h4V34.9a8 8 0 0 1 4.1-1c2 0 2.9.8 2.9 2.6v12.3zM150.4 31l2.3-8.3h-4.3l-1 8.3zm-4.6 9c0-5.9-2-9.4-7.1-9.4a9.1 9.1 0 0 0-4.8 1.4v-9.3h-4v26.1h2.4l.6-1.4a9.4 9.4 0 0 0 5.8 1.9c5.2 0 7.1-3.5 7.1-9.4zm-4 0c0 3.2-.5 6-4 6a7.7 7.7 0 0 1-3.8-1v-10a7.6 7.6 0 0 1 3.8-1c3.5 0 4 2.7 4 6zm-15.9 1.4v-1.8c0-4.9-1-9-7.2-9-5.8 0-8 3.6-8 9.3s2.2 9.4 8.2 9.4A16.5 16.5 0 0 0 125 48v-3.5a14.1 14.1 0 0 1-5.7 1.1c-3.6 0-4.6-1.7-4.7-4.4zm-4-2.8h-7.1c.1-2.7 1-4.6 3.9-4.6 3 0 3.2 2.2 3.2 4.6zm-18 10.3l4.6-17.9h-4l-2.5 12.3-3.4-12.3h-3.7l-3.4 12.3-2.5-12.3h-4l4.6 17.9H93l3.6-13.2 3.7 13.1z"/><path fill="#fff" d="M53 22.6h-4.3l-7.4 26.1h4.3l7.3-26.1zM29.6 48.7l7.4-26.1h-4.2l-7.4 26.1zM19 31l2.4-8.3h-4.4l-1 8.3z"/></svg>