<svg xmlns="http://www.w3.org/2000/svg" xml:space="preserve" version="1.1" viewBox="0 0 210 32"><defs><clipPath id="a" clipPathUnits="userSpaceOnUse"><path d="M0 0h6565v996.641H0Z"/></clipPath></defs><g fill-opacity="1" fill-rule="nonzero" stroke="none" clip-path="url(#a)" transform="matrix(.03145 0 0 -.03145 1.671 32)"><path d="m2552.05 27.316-235.5 349.961 214.66 340.871c2.61 3.899 2.61 6.504 2.61 10.407 0 9.101-6.5 16.918-15.61 16.918h-174.34c-14.31 0-22.12-7.817-33.82-27.325l-106.69-179.543-115.8 179.543c-11.7 16.922-19.5 27.325-33.81 27.325H1859.9c-10.39 0-19.5-9.11-19.5-19.524 0-2.59 1.3-5.195 2.6-7.801l221.17-330.453-227.69-361.687c-2.61-3.887-2.61-7.785-2.61-10.39 0-9.134 5.22-15.618 14.31-15.618h174.36c14.29 0 22.12 6.484 33.82 26.008l120.99 202.957 128.81-201.649C2317.86 7.813 2325.66 0 2339.98 0h196.45c10.42 0 18.22 9.094 18.22 18.223 0 3.898-1.32 6.484-2.6 9.093M1519.75 180.86c-24.7-3.886-63.73-7.8-106.68-7.8-92.36 0-117.09 67.644-117.09 160.007v101.485c0 92.375 24.73 158.722 117.09 158.722 42.95 0 81.98-2.609 106.68-6.503zm169.15 552.914c-74.18 18.223-175.65 33.829-275.83 33.829-210.77 0-326.57-122.29-326.57-333.051V333.066C1086.5 122.305 1202.3 0 1413.07 0c100.18 0 201.65 15.637 275.83 33.84 35.12 7.82 40.31 16.894 40.31 37.722v624.493c0 20.82-5.19 29.922-40.31 37.718m-995.455 22.098h-24.722c-76.766 0-135.328-22.117-178.258-55.945C447.539 733.754 389 755.871 312.23 755.871h-26.003C104.078 755.871 0 671.309 0 487.863V28.613C0 14.285 11.7 0 26.012 0h158.722c14.309 0 26.032 14.285 26.032 28.613v459.25c0 74.168 20.812 94.973 75.461 94.973h26.003c65.043 0 72.872-37.719 72.872-94.973V28.613C385.102 14.285 396.801 0 411.113 0h160.008c14.332 0 24.731 14.285 24.731 28.613v459.25c0 57.254 7.804 94.973 72.871 94.973h24.722c54.606 0 76.727-20.805 76.727-94.973V28.613C770.172 14.285 781.91 0 796.223 0h158.703c14.328 0 26.027 14.285 26.027 28.613v459.25c0 183.446-105.383 268.008-287.508 268.008" fill="#d81e25"/><path d="M6530.14 754.953c-123.44 0-204.01-10.387-287.16-37.683-29.9-10.395-40.29-23.387-40.29-41.582V27.297c0-14.29 13-27.297 27.29-27.297h157.21c14.29 0 26.01 13.008 26.01 27.297v544.449c27.27 5.188 79.26 7.777 116.94 7.777 24.68 0 35.08 10.415 35.08 24.707v126.043c0 18.196-19.48 24.68-35.08 24.68m-636.71-306.652h-236.48v5.207c0 94.836 48.08 144.226 119.55 144.226 72.76 0 116.93-48.074 116.93-144.226zm-115.65 318.351c-206.58 0-328.74-132.531-328.74-341.73v-90.938C5449.04 83.164 5617.97 0 5775.19 0c113.05 0 183.22 10.39 266.39 31.191 22.07 5.215 27.27 14.305 27.27 35.079v98.769c0 14.297-10.4 20.789-24.68 20.789h-3.92c-51.95-5.191-167.59-11.715-249.46-11.715-102.65 0-133.84 67.586-133.84 141.668v2.578h414.51c16.89 0 27.29 11.7 27.29 31.192v75.371c0 196.199-107.85 341.73-320.97 341.73m-430.43-10.386h-178.01v137.73c0 12.992-11.72 25.984-23.4 25.984h-3.89l-158.54-27.281c-14.3-2.609-26-11.711-26-26V214.414C4957.51 45.496 5043.29 0 5188.82 0c55.87 0 118.25 5.215 155.91 11.719 16.91 2.566 26.02 11.68 26.02 25.968v100.067c0 14.289-10.42 22.07-27.3 22.07h-97.47c-55.87 0-76.64 7.805-76.64 53.301v385.902h178.01c14.29 0 25.98 11.7 25.98 26.004v105.235c0 14.285-11.69 26-25.98 26M4720.84 418.43l-161.1 92.238c-26.01 15.602-40.3 26.004-40.3 45.484 0 29.875 18.2 37.68 68.88 37.68 66.26 0 178.02-11.68 215.69-16.898h5.19c13.01 0 20.81 9.093 20.81 24.707v105.234c0 15.605-9.1 26-24.69 29.902-66.27 16.875-128.65 29.875-231.29 29.875-179.31 0-266.39-70.172-266.39-201.406 0-84.445 42.88-150.715 115.66-192.297l168.93-97.453c36.39-20.789 48.06-35.113 48.06-54.578 0-33.797-14.29-50.672-76.66-50.672-41.58 0-150.71 9.09-220.89 18.152h-5.22c-15.57 0-24.68-11.679-24.68-24.675V58.477c0-15.586 9.11-25.965 24.68-29.883C4403.8 10.39 4502.56 0 4574.03 0c189.72 0 278.06 96.172 278.06 218.301 0 70.176-23.39 137.754-131.25 200.129m-540.7 337.836H4020.3c-14.29 0-25.97-13.004-25.97-27.297v-398.91c0-123.438-38.99-152.032-100.06-152.032h-18.18c-61.09 0-100.06 28.594-100.06 152.032v398.91c0 14.293-11.68 27.297-26 27.297h-159.84c-14.29 0-24.66-13.004-24.66-27.297v-398.91C3565.53 24.687 3794.21 0 3876.09 0h18.18c81.86 0 310.56 24.688 310.56 330.059v398.91c0 14.293-10.4 27.297-24.69 27.297m-755.58 240.375h-158.53c-14.29 0-27.29-11.7-27.29-25.985V27.296c0-14.288 13-27.296 27.29-27.296h158.53c14.28 0 24.67 13.008 24.67 27.297v943.359c0 14.285-10.39 25.985-24.67 25.985m-341.64-249.477c-36.41 9.102-94.87 19.488-172.84 19.488-183.22 0-302.77-116.941-302.77-328.742V328.762C2607.31 116.965 2726.86 0 2910.08 0c77.97 0 136.43 10.39 172.84 19.512 19.46 5.176 27.27 10.39 27.27 29.902V165.04c0 12.988-11.7 22.082-24.71 22.082h-2.56c-48.09-5.176-84.5-9.094-158.55-9.094-58.48 0-106.56 35.098-106.56 150.735V437.91c0 115.637 48.08 150.723 106.56 150.723 74.05 0 110.46-3.891 158.55-9.09h2.56c13.01 0 24.71 9.09 24.71 22.098V717.27c0 19.507-7.81 24.703-27.27 29.894" fill="#1a1b1b"/></g></svg>