<?xml version="1.0" encoding="utf-8"?>
<!-- Generator: Adobe Illustrator 27.0.0, SVG Export Plug-In . SVG Version: 6.00 Build 0)  -->
<svg version="1.1" id="Layer_1" xmlns="http://www.w3.org/2000/svg" xmlns:xlink="http://www.w3.org/1999/xlink" x="0px" y="0px"
	 viewBox="0 0 1980 1000" style="enable-background:new 0 0 1980 1000;" xml:space="preserve">
<g>
	<circle cx="276.72" cy="169.41" r="169.41"/>
	<g>
		<path d="M553.41,376.47c-3.01-31.45-14.73-60.28-32.71-84.11l-243.98,94.88L32.73,292.36c-17.98,23.83-29.7,52.66-32.71,84.11
			l152.19,59.18L48.61,475.95c13.92,27.52,30.65,53.39,49.88,77.44l178.23-69.31l178.23,69.31c19.23-24.04,35.96-49.92,49.88-77.44
			l-103.61-40.29L553.41,376.47z"/>
	</g>
</g>
<path d="M990.22,130.13c0-23.93,19.14-43.08,43.08-43.08c23.93,0,43.08,19.14,43.08,43.08s-19.14,43.08-43.08,43.08
	C1009.37,173.2,990.22,154.06,990.22,130.13z M995.01,208.62c28.24-6.22,56-6.7,77.54,0.48c1.91,1.91-1.92,231.18-3.83,234.53
	c-17.23,2.39-50.26,3.35-71.32,0.48C996.44,442.67,992.14,213.89,995.01,208.62z"/>
<path d="M1107.92,210.18c27.28-6.22,54.56-6.7,75.14,0.48c0.48,9.09,0,27.76-0.48,30.15c18.19-31.11,51.69-40.2,85.2-32.55
	c-0.48,24.89-5.27,55.52-11.01,79.93c-8.14-2.39-20.58-4.79-32.07-4.79c-24.41,0-34.94,15.79-37.81,36.85
	c-1.43,10.53,2.39,121.57,0.96,123.01c-19.14,2.87-56.48,3.83-80.41,0.48C1106,441.84,1106,219.75,1107.92,210.18z"/>
<path d="M1279.66,324.78c0-73.71,56-121.09,111.04-121.09c42.6,0,63.66,22.97,70.36,32.07c0-2.87,0-22.97,0.96-25.37
	c25.85-5.74,51.69-6.22,71.79,0.48c1.44,0.48-1.92,226.39-3.35,231.66c-17.23,2.39-50.26,3.35-71.32,0.48
	c-0.48-3.35-0.48-23.45-0.96-26.8c-8.14,13.4-35.42,29.67-67.49,29.67C1335.66,445.88,1279.66,398.49,1279.66,324.78z
	 M1456.27,324.78c0-28.24-21.06-50.73-48.82-50.73c-27.76,0-48.82,22.5-48.82,50.73s21.06,50.73,48.82,50.73
	C1435.21,375.52,1456.27,353.02,1456.27,324.78z"/>
<path d="M1592.43,369.29c0.48-22.5,3.35-104.82,3.35-105.3c0-0.48-30.63,0-33.02-2.39c-1.92-14.36-2.87-41.64-0.48-58.87h35.9
	c0.48-2.39,0.48-48.82,2.39-54.56c16.75-5.26,57.91-10.53,73.23-8.62c1.44,2.87-1.44,64.14-0.96,64.62
	c10.53-0.48,54.09,0,58.39,1.91c1.92,14.36,2.87,41.64,0.48,58.87c-3.35,3.35-56.48,0.96-60.79,1.44c0,2.39-1.44,55.52-1.44,83.28
	c0,15.32,7.66,24.89,22.98,25.37c14.84,0.48,27.76-8.62,31.59-9.57c7.18,13.4,17.23,39.73,21.06,56.96c0,0-20.1,23.93-70.84,23.45
	C1619.23,445.87,1592.43,415.72,1592.43,369.29z"/>
<path d="M1832.13,346.8c2.39,21.54,19.62,33.98,52.65,33.98c23.45,0,44.99-7.18,57.44-14.36c7.18,13.4,17.23,39.73,21.06,56.96
	c-12.92,10.53-43.55,22.5-82.32,22.5c-89.98,0-126.84-57.91-126.84-122.05c0-61.74,42.6-122.05,120.13-122.05
	c67.97,0,105.78,50.26,105.78,103.86c0,14.84-0.96,29.2-3.35,38.77C1952.26,347.76,1863.72,347.76,1832.13,346.8z M1833.08,297.02
	l74.19-0.96c0-23.45-10.05-37.33-33.98-37.33C1850.32,258.73,1835.96,274.53,1833.08,297.02z"/>
<path d="M1072.15,537.3c1.44,11.97-0.48,135.53-2.39,147.5c10.54-14.37,29.69-28.73,63.21-28.73c65.13,0,97.22,41.18,97.22,102.96
	c0,32.09-3.83,126.91-6.7,136.01c-17.72,2.39-52.2,3.35-74.23,0.48c-0.96-5.27,0.48-111.1,0.48-128.34
	c0-20.11-11.02-43.58-35.92-43.58c-26.34,0-40.23,20.59-40.23,39.27c0,15.8-0.48,130.74-2.4,132.65
	c-17.72,2.39-52.2,3.35-74.23,0.48c-1.44-2.87-2.87-333.31-0.48-359.17C1024.26,530.59,1051.08,530.11,1072.15,537.3z"/>
<path d="M1384.56,656.42c26.34-5.75,52.2-6.23,72.31,0.48l-0.48,25.86c3.35-5.75,26.34-27.3,65.61-27.3
	c58.9,0,110.62,47.41,110.62,121.16c0,73.75-51.24,120.68-110.62,121.16c-31.61,0.48-57.95-15.32-61.3-21.55
	c0,15.8,0,116.85-2.39,121.16c-19.16,2.87-56.03,3.83-79.5,0.48C1377.37,997.4,1380.25,666.96,1384.56,656.42z M1553.61,776.63
	c0-28.26-22.03-50.76-49.81-50.76c-27.78,0-49.8,22.51-49.8,50.76c0,28.25,22.03,50.76,49.8,50.76
	C1531.58,827.39,1553.61,804.88,1553.61,776.63z"/>
<g>
	<path d="M1262.73,582.01c0-23.93,19.14-43.08,43.08-43.08c23.93,0,43.08,19.14,43.08,43.08c0,23.93-19.14,43.08-43.08,43.08
		C1281.88,625.08,1262.73,605.94,1262.73,582.01z M1267.52,660.5c28.24-6.22,56-6.7,77.54,0.48c1.91,1.91-1.92,231.18-3.83,234.53
		c-17.23,2.39-50.26,3.35-71.32,0.48C1268.95,894.55,1264.65,665.77,1267.52,660.5z"/>
</g>
<path d="M823.09,897.76c98.97,0,139.61-53.07,139.61-103.75c0-65.98-47.81-91.32-114.75-105.66c-50.2-10.52-57.85-17.21-57.85-32.03
	c0-15.78,14.34-27.25,46.38-27.25c45.9,0,80.8,18.17,88.45,21.04c8.61-14.82,20.56-46.86,25.82-68.37
	c-18.17-12.43-60.24-26.3-115.7-26.3c-84.63,0-130.52,47.33-130.52,101.84c0,62.63,34.9,94.19,100.88,107.1
	c52.11,10.04,65.5,21.99,65.5,36.81c0,20.56-17.69,26.3-49.72,26.3c-40.64,0-81.28-25.82-92.75-32.51
	c-8.61,14.82-21.04,47.33-26.3,68.85C719.34,876.72,766.2,897.76,823.09,897.76"/>
<path d="M835.42,107.2c-44.94,0-98.97,2.39-124.79,4.78c-4.3,33.47-3.35,309.82-0.96,331.81c26.3,3.35,67.41,1.91,88.93-0.96
	c2.87-7.65,2.39-53.07,2.39-96.1c17.69,0.48,17.21,0.48,34.42,0.48c74.59,0,127.66-46.38,127.66-120.01S910.01,107.2,835.42,107.2z
	 M830.16,273.11c-10.52,0-22.47-0.48-31.08-1.43v-84.15c11.47-1.43,17.69-1.91,32.51-1.91c23.91,0,43.51,16.26,43.51,43.51
	C875.1,256.37,855.5,273.11,830.16,273.11z"/>
</svg>
