<?xml version="1.0" standalone="no"?>
<!DOCTYPE svg PUBLIC "-//W3C//DTD SVG 20010904//EN"
 "http://www.w3.org/TR/2001/REC-SVG-20010904/DTD/svg10.dtd">
<svg version="1.0" xmlns="http://www.w3.org/2000/svg"
 width="400.000000pt" height="400.000000pt" viewBox="0 0 400.000000 400.000000"
 preserveAspectRatio="xMidYMid meet">
<metadata>
Created by potrace 1.14, written by Peter Selinger 2001-2017
</metadata>
<g transform="translate(0.000000,400.000000) scale(0.100000,-0.100000)"
fill="#000000" stroke="none">
<path d="M2748 3897 c-38 -7 -49 -14 -59 -38 -22 -55 -87 -87 -116 -58 -9 9
-19 6 -40 -8 -31 -21 -79 -43 -93 -43 -6 0 -10 11 -10 25 0 23 -4 25 -45 25
-59 0 -131 -35 -146 -72 -14 -33 -22 -34 -96 -8 -31 11 -57 19 -58 17 -32 -52
-50 -67 -102 -82 -31 -9 -74 -31 -95 -48 -50 -40 -176 -88 -248 -94 -63 -6
-78 -16 -108 -77 -25 -49 -51 -61 -107 -50 -31 5 -39 1 -83 -40 -27 -26 -49
-52 -49 -59 1 -36 -4 -48 -20 -46 -44 4 -53 -1 -53 -30 0 -25 -8 -34 -55 -60
-30 -17 -60 -31 -67 -31 -17 0 -103 -95 -155 -173 l-45 -68 -47 7 c-25 3 -48
7 -51 8 -3 0 -22 -13 -42 -29 -21 -17 -42 -31 -48 -31 -5 -1 -19 -2 -30 -3
-11 0 -19 -4 -19 -8 7 -43 -4 -60 -66 -100 -35 -23 -75 -45 -90 -49 -28 -7
-55 -39 -55 -65 0 -12 -13 -18 -52 -23 -97 -13 -178 -97 -164 -171 5 -22 2
-36 -9 -45 -23 -19 -18 -29 20 -36 19 -3 35 -12 35 -19 0 -15 36 -31 60 -26
20 4 8 -7 -37 -35 l-38 -22 37 -7 c20 -4 43 -3 50 1 10 6 10 4 -1 -9 -12 -15
-10 -17 19 -17 24 0 33 5 37 20 4 16 13 20 39 18 33 -2 45 -20 24 -33 -5 -3
-10 -11 -10 -16 0 -14 40 -1 65 20 27 24 51 16 64 -20 7 -19 17 -29 30 -29 34
0 24 -17 -13 -24 -19 -4 -36 -12 -39 -19 -6 -20 27 -68 45 -63 17 4 28 -12 28
-43 0 -25 27 -46 84 -65 27 -9 51 -16 53 -16 2 0 3 13 3 28 0 16 9 38 21 51
12 12 27 45 34 71 11 41 11 51 -1 61 -8 6 -14 18 -14 25 0 20 59 47 110 50 30
1 48 8 57 21 38 57 37 57 69 40 30 -16 30 -16 43 19 16 44 42 57 93 49 43 -8
112 -61 123 -95 3 -10 26 -26 50 -35 28 -11 58 -35 84 -65 40 -47 40 -47 20
-66 -11 -11 -35 -37 -53 -59 l-33 -40 36 -44 c35 -43 36 -47 36 -125 1 -99 17
-151 54 -171 15 -7 38 -30 52 -49 28 -42 41 -48 71 -37 18 7 31 2 58 -19 34
-27 36 -27 56 -11 12 10 42 18 70 20 27 1 51 6 54 11 3 5 30 -7 60 -25 52 -32
55 -33 62 -14 4 10 11 19 15 20 87 9 120 2 161 -38 40 -38 61 -83 51 -108 -12
-32 -11 -35 24 -35 45 0 55 -9 73 -69 12 -43 21 -54 45 -63 18 -6 31 -19 35
-34 5 -20 13 -24 41 -24 29 0 42 8 81 52 26 28 62 71 81 95 20 26 42 43 55 43
27 1 60 26 51 39 -7 13 -7 13 63 15 56 1 72 13 72 53 0 22 15 29 105 47 27 6
34 16 75 118 25 61 45 118 45 126 0 25 24 25 34 0 8 -22 8 -22 14 7 4 17 9 64
12 105 3 43 17 106 31 147 22 60 37 82 87 130 46 43 60 64 58 81 -2 18 2 23
16 22 46 -5 62 2 88 40 21 30 26 47 22 69 l-6 30 41 -15 c22 -8 42 -14 44 -14
9 0 3 40 -6 41 -5 1 -14 3 -20 4 -5 1 -14 3 -20 4 -19 2 -10 60 20 124 32 69
47 79 108 71 31 -3 39 5 33 39 -1 4 4 17 9 28 8 14 17 18 32 13 21 -6 21 -4
15 70 -8 88 2 120 42 144 17 9 29 24 28 34 -1 18 -11 21 -59 18 -38 -2 -38 32
-1 64 l28 24 -40 10 c-22 6 -59 11 -82 11 -35 0 -49 6 -78 35 -22 22 -45 36
-61 36 -16 0 -40 15 -68 45 -25 25 -47 45 -51 45 -14 0 -55 -57 -61 -87 -7
-35 -15 -40 -60 -38 -26 1 -35 -5 -49 -31 -11 -21 -27 -34 -47 -38 -16 -3 -42
-15 -58 -26 -15 -11 -32 -20 -37 -20 -4 0 -38 20 -75 44 -37 24 -89 51 -117
61 -33 11 -71 36 -111 73 -60 55 -62 59 -74 129 -10 62 -10 77 3 108 10 22 22
34 31 32 8 -2 14 -9 12 -16 -2 -9 9 -10 45 -5 27 4 58 8 69 8 15 0 30 14 47
43 l26 43 -24 6 c-36 9 -31 36 11 74 25 22 33 35 26 42 -7 7 -24 1 -54 -19
-58 -41 -89 -56 -182 -88 l-78 -28 -33 34 c-44 45 -56 120 -26 159 l20 25 30
-29 31 -30 1 25 c1 13 1 27 1 30 -1 4 9 16 21 27 17 16 39 22 83 25 72 4 116
28 168 91 46 56 46 69 1 50 -30 -12 -39 -12 -58 -1 -16 10 -34 11 -69 4z
m-600 -1011 c40 -14 92 -45 118 -71 32 -31 56 -100 55 -158 -1 -99 -34 -154
-166 -283 l-113 -111 146 1 147 1 -1 -25 c-1 -14 -5 -52 -9 -85 -4 -33 -8 -66
-8 -72 0 -7 -9 -13 -19 -13 -10 -1 -74 -1 -143 -1 -69 0 -192 0 -274 1 l-149
0 0 88 0 87 123 120 c156 153 184 190 192 253 5 42 2 52 -18 70 -39 38 -103
27 -155 -27 l-30 -30 -69 55 c-39 31 -71 60 -73 65 -5 13 77 88 123 112 85 44
234 55 323 23z m564 -12 c56 -20 104 -37 106 -39 3 -2 -67 -174 -120 -295 -57
-130 -56 -122 -8 -125 16 -1 30 3 31 9 0 6 2 18 4 26 2 8 6 29 9 45 13 69 18
84 29 87 10 3 143 2 205 -1 8 -1 12 -25 12 -86 l0 -84 38 4 38 4 1 -100 1 -99
-39 0 c-43 0 -43 -1 -39 -107 l2 -43 -54 -1 c-159 -1 -202 1 -207 10 -4 6 -6
40 -5 76 l1 65 -172 0 -172 0 2 93 c2 91 3 94 79 272 43 99 91 213 108 253 16
39 34 72 38 72 4 0 55 -16 112 -36z"/>
<path d="M1833 714 c-83 -17 -134 -45 -181 -100 -53 -63 -74 -128 -78 -244 -6
-199 69 -310 239 -351 82 -20 344 5 374 35 10 9 -20 176 -31 176 -6 -1 -37 -7
-68 -14 -65 -16 -174 -14 -206 3 -12 6 -29 25 -37 41 l-16 30 48 1 c27 1 112
1 190 0 l143 0 7 27 c5 15 8 68 8 117 -1 73 -5 98 -22 130 -73 135 -196 185
-370 149z m122 -195 c16 -17 30 -79 18 -80 -57 -6 -143 -2 -143 7 0 29 25 76
44 84 29 10 65 6 81 -11z"/>
<path d="M3406 718 c-196 -26 -312 -176 -299 -389 11 -200 137 -316 348 -323
68 -2 200 16 213 29 2 2 -1 35 -8 73 -6 39 -13 79 -14 89 -3 16 -12 18 -85 14
-99 -4 -138 12 -171 72 -25 44 -25 119 1 171 29 60 118 84 211 58 l37 -10 10
51 c6 29 13 73 16 99 l6 46 -56 12 c-73 15 -136 18 -209 8z"/>
<path d="M502 403 c43 -170 82 -324 86 -343 l8 -35 151 0 150 -1 14 50 c7 28
14 56 15 61 3 9 53 270 55 284 0 3 18 -79 39 -183 22 -104 41 -194 43 -200 3
-8 51 -12 153 -11 l148 0 13 45 c7 25 15 54 17 65 5 23 134 531 142 558 5 16
-6 17 -130 17 -75 0 -136 -2 -136 -4 0 -2 -6 -41 -14 -87 -8 -46 -18 -102 -21
-124 -4 -22 -8 -47 -10 -55 -2 -8 -7 -44 -11 -80 -4 -36 -9 -68 -10 -72 -1 -5
-2 -22 -3 -40 -1 -40 -7 -34 -15 17 -4 22 -9 56 -12 75 -6 36 -31 170 -39 205
-2 11 -10 48 -17 82 -8 34 -17 65 -22 70 -4 4 -59 8 -121 8 l-114 0 -11 -65
c-7 -36 -21 -102 -31 -146 -18 -81 -22 -104 -35 -217 -8 -64 -11 -67 -19 -16
-18 127 -35 238 -40 262 -2 15 -10 55 -15 90 -19 106 -4 97 -154 97 l-133 0
79 -307z"/>
<path d="M2336 702 c-11 -18 -3 -467 9 -519 26 -111 85 -163 194 -170 77 -6
162 21 202 63 l24 25 16 -37 15 -38 107 -2 107 -1 0 344 0 343 -130 0 -130 0
-1 -42 c0 -24 0 -129 1 -235 1 -180 0 -192 -18 -202 -47 -25 -116 -13 -129 22
-4 12 -8 119 -8 237 l-1 215 -126 3 c-70 1 -129 -1 -132 -6z"/>
</g>
</svg>
